<svg width="15" height="15" viewBox="0 0 15 15" fill="none" xmlns="http://www.w3.org/2000/svg">
<g clip-path="url(#clip0_1_5037)">
<path d="M3.4163 10.1542V12.1083C3.41613 12.3476 3.48603 12.5817 3.61736 12.7816C3.74868 12.9816 3.93572 13.1388 4.15533 13.2337C4.37494 13.3286 4.61752 13.3571 4.85317 13.3157C5.0888 13.2744 5.30719 13.1649 5.48132 13.0009L7.00379 11.5659H7.51129C10.7313 11.5659 13.3446 9.34924 13.3446 6.60757C13.3446 3.8659 10.7313 1.64923 7.51129 1.64923C4.29131 1.64923 1.67798 3.87173 1.67798 6.60757C1.69109 7.28937 1.85478 7.9598 2.15732 8.5709C2.45986 9.18205 2.89376 9.71872 3.42798 10.1425L3.4163 10.1542Z" stroke="#C37A44" stroke-width="1.4" stroke-linecap="round" stroke-linejoin="round"/>
</g>
<defs>
<clipPath id="clip0_1_5037">
<rect width="14" height="14" fill="white" transform="translate(0.5 0.5)"/>
</clipPath>
</defs>
</svg>
