<svg width="16" height="16" viewBox="0 0 16 16" fill="none" xmlns="http://www.w3.org/2000/svg">
<path d="M13 11.2187C12.3666 11.2187 11.8 11.4531 11.3666 11.8203L5.42497 8.57817C5.46665 8.39849 5.5 8.2188 5.5 8.03131C5.5 7.84381 5.46665 7.66413 5.42497 7.48445L11.3 4.27359C11.75 4.6642 12.3417 4.90638 13 4.90638C14.3834 4.90638 15.5 3.85953 15.5 2.56269C15.5 1.26584 14.3834 0.218994 13 0.218994C11.6166 0.218994 10.5 1.26584 10.5 2.56269C10.5 2.75018 10.5334 2.92987 10.575 3.10955L4.7 6.32041C4.25 5.9298 3.65834 5.68761 3 5.68761C1.61666 5.68761 0.5 6.73446 0.5 8.03131C0.5 9.32815 1.61666 10.375 3 10.375C3.65834 10.375 4.25 10.1328 4.7 9.7422L10.6334 12.9921C10.5917 13.1562 10.5666 13.3281 10.5666 13.4999C10.5666 14.7577 11.6583 15.7811 13 15.7811C14.3417 15.7811 15.4334 14.7577 15.4334 13.4999C15.4334 12.2421 14.3417 11.2187 13 11.2187Z" fill="#CBC9C9"/>
</svg>
