<svg width="31" height="30" viewBox="0 0 31 30" fill="none" xmlns="http://www.w3.org/2000/svg">
<g clip-path="url(#clip0_1_22)">
<path d="M23.25 20.1C22.2683 20.1 21.39 20.475 20.7183 21.0625L11.5087 15.875C11.5733 15.5875 11.625 15.3 11.625 15C11.625 14.7 11.5733 14.4125 11.5087 14.125L20.615 8.9875C21.3125 9.6125 22.2296 10 23.25 10C25.3942 10 27.125 8.325 27.125 6.25C27.125 4.175 25.3942 2.5 23.25 2.5C21.1058 2.5 19.375 4.175 19.375 6.25C19.375 6.55 19.4267 6.8375 19.4913 7.125L10.385 12.2625C9.6875 11.6375 8.77042 11.25 7.75 11.25C5.60583 11.25 3.875 12.925 3.875 15C3.875 17.075 5.60583 18.75 7.75 18.75C8.77042 18.75 9.6875 18.3625 10.385 17.7375L19.5817 22.9375C19.5171 23.2 19.4783 23.475 19.4783 23.75C19.4783 25.7625 21.1704 27.4 23.25 27.4C25.3296 27.4 27.0217 25.7625 27.0217 23.75C27.0217 21.7375 25.3296 20.1 23.25 20.1Z" fill="#C37A44"/>
</g>
<defs>
<clipPath id="clip0_1_22">
<rect width="31" height="30" fill="white"/>
</clipPath>
</defs>
</svg>
