<svg width="16" height="16" viewBox="0 0 16 16" fill="none" xmlns="http://www.w3.org/2000/svg">
<path fill-rule="evenodd" clip-rule="evenodd" d="M4.48071 6.92645V9.11811C4.48071 9.39425 4.25686 9.61811 3.98071 9.61811C3.70457 9.61811 3.48071 9.39425 3.48071 9.11811V6.80342C3.48071 6.72586 3.49876 6.64937 3.53341 6.57999C3.53341 6.57999 3.53331 6.58021 3.53352 6.57978L3.53398 6.57886L3.53497 6.57689C3.53577 6.5753 3.53685 6.57315 3.53822 6.57047C3.54094 6.56511 3.54477 6.55759 3.54969 6.54808C3.55951 6.52905 3.57365 6.50198 3.59184 6.468C3.62818 6.40011 3.68082 6.30435 3.74751 6.18994C3.88029 5.96218 4.07164 5.65552 4.3036 5.34614C4.53339 5.03966 4.81544 4.7137 5.1327 4.45994C5.44306 4.2117 5.84187 3.98874 6.2954 3.98874H6.78134C7.24547 3.98874 7.69059 4.17311 8.01877 4.5013C8.34696 4.82949 8.53134 5.27461 8.53134 5.73874V11.3723L10.2154 14.7751C10.3379 15.0226 10.2365 15.3225 9.98906 15.445C9.74156 15.5675 9.44164 15.4661 9.31915 15.2186L7.5788 11.7021L6.21606 9.96131C6.20264 9.94417 6.19035 9.92617 6.17928 9.90742C5.92742 9.48107 5.79483 8.99484 5.7954 8.49965V5.21112C5.78287 5.22068 5.77018 5.23059 5.75733 5.24087C5.53198 5.42111 5.30777 5.67383 5.10369 5.94602C4.90178 6.21532 4.73166 6.48733 4.61144 6.69356C4.55606 6.78856 4.51189 6.86853 4.48071 6.92645Z" fill="#C37A44"/>
<path d="M11.5029 9.11811C11.3888 9.11809 11.2772 9.08427 11.1823 9.02092L9.30321 7.81249C9.21026 7.75253 9.13381 7.67023 9.08086 7.57312C9.0279 7.476 9.00013 7.36716 9.00009 7.25655V6.51592C9.00005 6.48424 9.00853 6.45314 9.02465 6.42586C9.04076 6.39859 9.06392 6.37615 9.09169 6.36091C9.11946 6.34567 9.15082 6.33817 9.18249 6.33922C9.21415 6.34027 9.24495 6.34982 9.27165 6.36686L11.8232 8.0578C11.9266 8.12672 12.0051 8.2271 12.047 8.34407C12.0889 8.46105 12.0921 8.58841 12.056 8.70732C12.02 8.82624 11.9466 8.93039 11.8468 9.00437C11.7469 9.07835 11.6259 9.11823 11.5016 9.11811H11.5029Z" fill="#C37A44"/>
<path d="M5.37228 15.4209C5.28234 15.421 5.19362 15.4002 5.11317 15.36C5.03271 15.3198 4.96275 15.2613 4.90884 15.1894C4.71696 14.9337 4.78384 14.6525 5.02446 14.3794L6.8979 12.0462C6.92369 12.0269 6.95323 12.0132 6.98463 12.006C7.01603 11.9987 7.0486 11.9981 7.08024 12.0042C7.11189 12.0102 7.14193 12.0228 7.16843 12.0411C7.19493 12.0595 7.21732 12.0831 7.23415 12.1106C7.2829 12.19 7.33978 12.2872 7.39634 12.3947C7.56009 12.7056 7.58384 12.8981 7.34384 13.1978C7.09384 13.5103 5.71884 15.3053 5.71884 15.3053C5.63696 15.3984 5.4929 15.4209 5.37228 15.4209Z" fill="#C37A44"/>
<path fill-rule="evenodd" clip-rule="evenodd" d="M6.62384 2.17374C6.62384 1.39639 7.254 0.766235 8.03134 0.766235C8.80868 0.766235 9.43884 1.39639 9.43884 2.17374C9.43884 2.95108 8.80868 3.58124 8.03134 3.58124C7.254 3.58124 6.62384 2.95108 6.62384 2.17374Z" fill="#C37A44"/>
</svg>
