<svg width="40" height="40" viewBox="0 0 40 40" fill="none" xmlns="http://www.w3.org/2000/svg">
<g id="random-1dice-svgrepo-com 1">
<g id="Group">
<path id="Vector" fill-rule="evenodd" clip-rule="evenodd" d="M7.48357 13.7652C7.48373 13.0752 7.96232 12.2282 8.55451 11.8719L18.9072 5.64412C19.4986 5.28834 20.4564 5.28834 21.0489 5.64537L31.4051 11.8851C31.9967 12.2413 32.4759 13.0887 32.4758 13.7816L32.4714 26.2196C32.4712 26.9107 31.9919 27.761 31.4014 28.1187L21.0264 34.4007C20.4356 34.7585 19.479 34.7583 18.8873 34.3991L8.54873 28.1202C7.95811 27.7616 7.47967 26.9119 7.47998 26.2216L7.48357 13.7652ZM9.66107 12.7537L19.9476 18.4972L29.7548 12.8288L19.9311 7.06037L9.66107 12.7537ZM8.99764 14.6126C8.99764 14.8669 8.83123 25.8407 8.83123 25.8407C8.82592 26.1854 9.06045 26.609 9.35732 26.7882L18.9842 32.5979L19.0728 20.5021C19.0728 20.5021 8.99764 14.358 8.99764 14.6126ZM20.8894 32.5716L30.4069 26.531C30.7712 26.2997 31.0667 25.763 31.0667 25.3312V14.5508L20.8894 20.4122V32.5716Z" fill="white"/>
<path id="Vector_2" fill-rule="evenodd" clip-rule="evenodd" d="M12.15 20.6698C11.4028 21.1014 10.4122 20.7847 9.93747 19.9627C9.46294 19.1406 9.68403 18.1244 10.4312 17.693C11.1786 17.2614 12.1692 17.5781 12.6437 18.4002C13.1184 19.2222 12.8973 20.2384 12.15 20.6698ZM17.15 23.9511C16.4028 24.3827 15.4122 24.0659 14.9375 23.2439C14.4629 22.4219 14.684 21.4056 15.4312 20.9742C16.1786 20.5427 17.1692 20.8594 17.6437 21.6814C18.1184 22.5034 17.8973 23.5197 17.15 23.9511ZM12.15 26.4511C11.4028 26.8827 10.4122 26.5659 9.93747 25.7439C9.46294 24.9219 9.68403 23.9056 10.4312 23.4742C11.1786 23.0427 12.1692 23.3594 12.6437 24.1814C13.1184 25.0034 12.8973 26.0197 12.15 26.4511ZM17.15 29.7323C16.4028 30.1639 15.4122 29.8472 14.9375 29.0252C14.4629 28.2031 14.684 27.1869 15.4312 26.7555C16.1786 26.3239 17.1692 26.6406 17.6437 27.4627C18.1184 28.2847 17.8973 29.3009 17.15 29.7323ZM29.3747 17.5367C28.6273 17.1052 27.6368 17.4219 27.1622 18.2439C26.6876 19.0659 26.9086 20.0822 27.6559 20.5136C28.4032 20.9452 29.3939 20.6284 29.8684 19.8064C30.3431 18.9844 30.122 17.9681 29.3747 17.5367ZM26.8375 22.068C26.0903 21.6364 25.0997 21.9531 24.625 22.7752C24.1504 23.5972 24.3715 24.6134 25.1187 25.0448C25.8661 25.4764 26.8567 25.1597 27.3312 24.3377C27.8059 23.5156 27.5848 22.4994 26.8375 22.068ZM24.1812 26.443C23.434 26.0114 22.4434 26.3281 21.9687 27.1502C21.4942 27.9722 21.7153 28.9884 22.4625 29.4198C23.2098 29.8514 24.2004 29.5347 24.675 28.7127C25.1497 27.8906 24.9286 26.8744 24.1812 26.443ZM20.0781 10.7812C19.0857 10.7812 18.2812 11.5508 18.2812 12.5C18.2812 13.4492 19.0857 14.2188 20.0781 14.2188C21.0704 14.2188 21.875 13.4492 21.875 12.5C21.875 11.5508 21.0704 10.7812 20.0781 10.7812Z" fill="white"/>
</g>
</g>
</svg>
